<svg xmlns="http://www.w3.org/2000/svg" xmlns:xlink="http://www.w3.org/1999/xlink" viewBox="0 0 231.5 375.69"><defs><style>.cls-1{fill:none;}.cls-2{fill:#8c8c8c;}.cls-3{fill:#ff6470;}.cls-4{clip-path:url(#clip-path);}.cls-5{fill:#666;}.cls-6{fill:#333;}.cls-7{clip-path:url(#clip-path-2);}.cls-8{fill:#b2b2b2;}.cls-9{fill:#231f20;}.cls-10,.cls-11{fill:#fff;}.cls-11{opacity:0.2;}</style><clipPath id="clip-path" transform="translate(13.48)"><circle class="cls-1" cx="102.28" cy="102.28" r="102.28"/></clipPath><clipPath id="clip-path-2" transform="translate(13.48)"><path class="cls-2" d="M139.84,110.49A321.12,321.12,0,0,0,131,74.7s-1.56-.94-7.34-1.33c-4.58-.32-17.2-1.16-23.12-1.06-4.39-.1-15,.74-19.59,1.06-5.78.39-7.34,1.33-7.34,1.33a321.12,321.12,0,0,0-8.87,35.79c-3.43,19.73-4.59,30.1,7.65,43.81,10.21,11.45,25,11.19,29.44,11.12,4.66-.08,18.82,2.44,30.4-11.12C144.13,140.33,143.27,130.22,139.84,110.49Z"/></clipPath></defs><g id="Layer_2" data-name="Layer 2"><g id="objects"><circle class="cls-3" cx="115.75" cy="102.28" r="102.28"/><g class="cls-4"><path class="cls-5" d="M61.84,98.78s-9.37-9.36-19.06-5.35-10.71,14.38-3,17.06,16.38,3.68,19.39,1.67S61.84,98.78,61.84,98.78Z" transform="translate(13.48)"/><path class="cls-5" d="M142.71,98.78s9.37-9.36,19.07-5.35,10.7,14.38,3,17.06-16.39,3.68-19.4,1.67S142.71,98.78,142.71,98.78Z" transform="translate(13.48)"/><path class="cls-5" d="M215.73,361.65c-4.9-5.8-19.62-4-19.62-4s9.81-14.27,14.72-28.1,8-45-2.23-53.51-30.33,10.26-30.33,10.26c-2,3-12.83,20.63-23.68,39.22,3.82-14.42,7.11-27.28,7.63-30.75,1.34-8.92-3.57-106.13-11.15-119.95-6.76-12.33-40.81-15.08-48.1-15.53v-.08l-.69,0-.7,0v.08c-7.29.45-41.34,3.2-48.1,15.53-7.58,13.82-12.49,111-11.15,120,.52,3.47,3.81,16.33,7.64,30.75-10.85-18.59-21.67-36.19-23.69-39.22,0,0-20.07-18.73-30.32-10.26s-7.14,39.69-2.23,53.51,14.71,28.1,14.71,28.1-14.71-1.79-19.62,4-.89,13.38,2.23,13.82c2.48.36,50.63.43,72.48-.89H141c21.85,1.32,70,1.25,72.48.89C216.62,375,220.64,367.45,215.73,361.65Z" transform="translate(13.48)"/><path class="cls-6" d="M197,229.66c-4.9-39.69-32.1-70.9-43.25-107.91s-7.95-49.09-21-75.36c-10.47-21.15-28.94-20.92-33-20.6-5.32-.05-18.73,1.85-28,20.6-13,26.27-9.81,38.35-21,75.36S12.45,190,7.55,229.66s6.24,90.07,11.15,108.8,11.59,32.11,18.73,33.44,10.7-8.47,10.7-8.47,1.34,9.81,8,9.81,8.92-9.36,8.92-9.36-.54,9.14,6.24,9.81,8.48-8.47,8.48-8.47,1.33,8.47,9.81,8,9.81-49.49,10.7-64.66-4.91-53.95-19.18-80.26c-7.07-13-14.71-34.78-6.68-46.82,7.31-11,24.62-14,27.66-14,2.55,0,20.56,2.84,28,14,8,12,.38,33.77-6.69,46.82-14.27,26.31-20.07,65.1-19.18,80.26s2.23,64.22,10.71,64.66,9.81-8,9.81-8,1.68,9.14,8.47,8.47,6.24-9.81,6.24-9.81,2.23,9.36,8.92,9.36,8-9.81,8-9.81,3.56,9.81,10.7,8.47,13.82-14.71,18.73-33.44S201.91,269.34,197,229.66Z" transform="translate(13.48)"/><path class="cls-2" d="M139.84,110.49A321.12,321.12,0,0,0,131,74.7s-1.56-.94-7.34-1.33c-4.58-.32-17.2-1.16-23.12-1.06-4.39-.1-15,.74-19.59,1.06-5.78.39-7.34,1.33-7.34,1.33a321.12,321.12,0,0,0-8.87,35.79c-3.43,19.73-4.59,30.1,7.65,43.81,10.21,11.45,25,11.19,29.44,11.12,4.66-.08,18.82,2.44,30.4-11.12C144.13,140.33,143.27,130.22,139.84,110.49Z" transform="translate(13.48)"/><g class="cls-7"><path class="cls-8" d="M58.61,144.71s2.67-8.69,13.82-15.38,19.4-6.69,19.4-6.69-9.09-5.88-2.61-12.52c4.85-5,10,.93,11.08,2.71a10,10,0,0,1,1.34,2.9s2.56-7.69,6.8-7.92c6.68-.35,8.35,3.59,7.68,8.27S113,122,113,122s12,2.9,19.84,8.25,10,16.72,10,16.72-18.06,23.19-39.24,24.3S58.61,144.71,58.61,144.71Z" transform="translate(13.48)"/><circle class="cls-6" cx="107.42" cy="115" r="2.34"/><circle class="cls-6" cx="122.64" cy="114.84" r="2.34"/></g><rect class="cls-6" x="73.31" y="143.14" width="82.94" height="1.92"/><circle class="cls-9" cx="107.78" cy="100.03" r="5.08"/><circle class="cls-10" cx="107.78" cy="100.03" r="1.6"/><circle class="cls-9" cx="122.67" cy="100.03" r="5.08"/><circle class="cls-10" cx="122.67" cy="100.03" r="1.6"/><path class="cls-11" d="M101.55,25.72c-.73,0-1.34,0-1.77.07-5.32-.05-18.73,1.85-28,20.6S61.43,76.79,57.5,95.48c-3.64-2.22-9.12-4.37-14.72-2-9.7,4-10.71,14.38-3,17.06a47.82,47.82,0,0,0,13.48,2.71c-.74,2.7-1.54,5.54-2.45,8.55C39.65,158.76,12.45,190,7.55,229.66c-1.76,14.27-1.45,29.91-.1,45C3.27,273.4-.86,273.4-4,276c-10.26,8.48-7.14,39.69-2.23,53.51s14.71,28.1,14.71,28.1-14.71-1.79-19.62,4-.89,13.38,2.23,13.82c2.48.36,50.63.43,72.48-.89h38Z" transform="translate(13.48)"/></g></g></g></svg>