<svg xmlns="http://www.w3.org/2000/svg" xmlns:xlink="http://www.w3.org/1999/xlink" viewBox="0 0 204.55 211.44"><defs><style>.cls-1{fill:none;}.cls-2{isolation:isolate;}.cls-3{fill:#ffca3c;}.cls-4{clip-path:url(#clip-path);}.cls-5,.cls-6{fill:#ba9b89;}.cls-6{opacity:0.5;mix-blend-mode:multiply;}.cls-7{fill:#8c593b;}.cls-8{fill:#e38383;}.cls-9{fill:#231f20;}.cls-10,.cls-12{fill:#fff;}.cls-11{fill:#e1d9cb;}.cls-12{opacity:0.2;}</style><clipPath id="clip-path"><circle class="cls-1" cx="102.28" cy="102.28" r="102.28"/></clipPath></defs><g class="cls-2"><g id="Layer_2" data-name="Layer 2"><g id="objects"><circle class="cls-3" cx="102.28" cy="102.28" r="102.28"/><g class="cls-4"><path class="cls-5" d="M149.86,189c0-13.33-.07-22.36-1.35-35.61-1.4-14.48-3.1-35.47-9-49.11-14.67-10.59-34.64,1.58-37.29,13-.22,1-.41,1.94-.59,3a30.37,30.37,0,0,1-.88-3c-2.64-11.45-22.62-23.62-37.29-13-5.91,13.64-7.61,34.63-9,49.11-1.27,13.25-1.35,22.28-1.35,35.61,0,4.47-.8,10,.47,14.16,1,3.37.2,2.75,4,3.86,4.61,1.34,9.73,2.7,14.46,3.69,5.75,1.2,11.32.6,17.07.35,1.12,0,10.11,0,17.35-.17,1.62,1,5.56.09,7.38.17,5.75.25,11.32.85,17.07-.35,4.73-1,9.85-2.35,14.47-3.69,3.81-1.11,3-.49,4-3.86C150.66,199,149.86,193.48,149.86,189Z"/><path class="cls-6" d="M149.86,189c0-13.33-.07-22.36-1.35-35.61-1.4-14.48-3.1-35.47-9-49.11-14.67-10.59-34.64,1.58-37.29,13-.22,1-.41,1.94-.59,3a30.37,30.37,0,0,1-.88-3c-2.64-11.45-22.62-23.62-37.29-13-5.91,13.64-7.61,34.63-9,49.11-1.27,13.25-1.35,22.28-1.35,35.61,0,4.47-.8,10,.47,14.16,1,3.37.2,2.75,4,3.86,4.61,1.34,9.73,2.7,14.46,3.69,5.75,1.2,11.32.6,17.07.35,1.12,0,10.11,0,17.35-.17,1.62,1,5.56.09,7.38.17,5.75.25,11.32.85,17.07-.35,4.73-1,9.85-2.35,14.47-3.69,3.81-1.11,3-.49,4-3.86C150.66,199,149.86,193.48,149.86,189Z"/><path class="cls-7" d="M85,59.49c-.47-2.35-2.79-4.3-4.48-5.84-2-1.81-4.12-3.49-6.16-5.25l-4.94-4.31c-1.25-1.09-2.69-1.86-4-2.94-2.39-2-5.84-3.88-9.07-3.94-2,0-2.57,2.71-2.89,4.45a30,30,0,0,0,.29,10c.58,3.77.6,7.55,1.33,11.3.38,2,.71,4.5,2,6.11a34.4,34.4,0,0,1,5.48-2.88,65.06,65.06,0,0,1,8.27-3.14,77.19,77.19,0,0,0,7.9-2.52C80.76,59.72,82.6,59,85,59.49Z"/><path class="cls-8" d="M59.55,65.63c-1.13-6-4.37-13.8-4.08-19.92.08-1.71.36-3.39,2.17-3.56s3.09.75,4.41,1.88c1.84,1.57,3.78,3.08,5.58,4.7a40.86,40.86,0,0,1,4.73,5.11c.6.77,2.11,2.15,2.13,3.16a36.56,36.56,0,0,0-7.89,3.69c-1.67,1-1.66,2.26-3.34,3.19C62.47,64.31,60.82,66,59.55,65.63Z"/><path class="cls-7" d="M121.06,59.49c.47-2.35,2.78-4.3,4.47-5.84,2-1.81,4.13-3.49,6.17-5.25,1.65-1.43,3.29-2.88,4.93-4.31,1.26-1.09,2.7-1.86,4-2.94,2.39-2,5.84-3.88,9.07-3.94,2,0,2.57,2.71,2.88,4.45a30,30,0,0,1-.28,10c-.58,3.77-.6,7.55-1.33,11.3-.38,2-.71,4.5-2,6.11a34.5,34.5,0,0,0-5.49-2.88,63.93,63.93,0,0,0-8.27-3.14,77,77,0,0,1-7.89-2.52C125.25,59.72,123.41,59,121.06,59.49Z"/><path class="cls-8" d="M146.46,65.63c1.13-6,4.36-13.8,4.08-19.92-.08-1.71-.37-3.39-2.17-3.56S145.28,42.9,144,44c-1.84,1.57-3.79,3.08-5.58,4.7a40.12,40.12,0,0,0-4.73,5.11c-.6.77-2.12,2.15-2.14,3.16a36.13,36.13,0,0,1,7.89,3.69c1.68,1,1.66,2.26,3.35,3.19C143.54,64.31,145.19,66,146.46,65.63Z"/><path class="cls-5" d="M168,88.2c.18-3.28-6.32-5.51-7.76-8.32,2.4-1.55,5.88-.49,8.09-2.32-2.19-3.89-7.47-7.21-11.36-9.58-8.73-5.31-33.83-16.62-54.7-17-19.91-.34-46,11.66-54.71,17-3.89,2.37-9.17,5.69-11.35,9.58,2.2,1.83,5.68.77,8.08,2.32-1.43,2.81-7.93,5-7.76,8.32,4.07,1.46,8.44.26,5,5-2.38,3.24-4,4.69.52,6.26,4.34,1.5,3.73,1.31,3.67,5.55,0,2.81.15,3.72,2.47,5.39A87.19,87.19,0,0,0,60.66,118c2.43,1.17,5.11,2.27,7.16,4.08,4.41,3.9,9.39,10.45,14.82,13.86a38.35,38.35,0,0,0,19.64,6,30.34,30.34,0,0,0,17.47-5.21c5.43-3.41,12.57-10.76,17-14.66,2.05-1.81,4.73-2.91,7.16-4.08a86.65,86.65,0,0,0,12.49-7.57c2.33-1.67,2.52-2.58,2.47-5.39-.06-4.24-.66-4,3.67-5.55,4.55-1.57,2.9-3,.52-6.26C159.57,88.46,163.94,89.66,168,88.2Z"/><path class="cls-7" d="M112.32,88.18c3.86-2.25,6.67-3.55,11.23-3.83,2.64-.16,5.56,0,8-1,3.23-1.29,2.49-2.91-.74-3.06-2.93-.14-5.57,1.55-8.25,2.59,2-2.17,5.32-6.43,5.25-9.45-4.55-.16-8.33,4.5-11.16,7.56,0-2.7,1.59-7-.1-9.36C111.69,73.92,112.32,83.56,112.32,88.18Z"/><path class="cls-7" d="M92.24,88.18c-3.87-2.25-6.68-3.55-11.24-3.83-2.64-.16-5.55,0-8-1-3.23-1.29-2.49-2.91.75-3.06,2.93-.14,5.56,1.55,8.24,2.59-2-2.17-5.31-6.43-5.25-9.45,4.56-.16,8.33,4.5,11.17,7.56,0-2.7-1.6-7,.09-9.36C92.86,73.92,92.24,83.56,92.24,88.18Z"/><circle class="cls-9" cx="85.87" cy="97.26" r="5.9"/><circle class="cls-10" cx="85.87" cy="97.26" r="1.85"/><circle class="cls-9" cx="118.3" cy="97.26" r="5.9"/><circle class="cls-10" cx="118.3" cy="97.26" r="1.85"/><path class="cls-11" d="M102,119.16c-1.13-2.36-5.69-4.78-8-5.94a16.76,16.76,0,0,0-8.45-1.72c-4.43.22-9.57,3.25-11,7.66-1.5,4.7-.68,9.86,3.55,13.06,5.07,3.84,12,3.38,16.9,1.7,2.94-1,6.08-3.35,7.32-6.31C103.38,125.05,104,120,102,119.16Z"/><path class="cls-11" d="M102.22,119.16c1.14-2.36,5.69-4.78,8-5.94a16.78,16.78,0,0,1,8.45-1.72c4.44.22,9.58,3.25,11,7.66,1.49,4.7.68,9.86-3.55,13.06-5.08,3.84-12,3.38-16.9,1.7-2.95-1-6.08-3.35-7.32-6.31C100.81,125.05,100.17,120,102.22,119.16Z"/><path class="cls-8" d="M102.49,125.51c-.53-4.09-2.65-2.29-5.29-3.08-2.83-.84-2.38-4.14.38-4.77,2.53-.57,5.56-.26,8.18-.23,2.3,0,6.28,2.47,2.54,4.73C106.18,123.46,102.2,122.08,102.49,125.51Z"/><path class="cls-12" d="M102.61,51h-.33A78.36,78.36,0,0,0,81,54.13l-.53-.48c-2-1.81-4.12-3.49-6.16-5.25l-4.94-4.31c-1.25-1.09-2.69-1.86-4-2.94-2.39-2-5.84-3.88-9.07-3.94-2,0-2.57,2.71-2.89,4.45a30,30,0,0,0,.29,10c.58,3.77.6,7.55,1.33,11.3,0,.3.11.61.17.93-3.18,1.54-5.82,3-7.67,4.09-3.89,2.37-9.17,5.69-11.35,9.58,2.2,1.83,5.68.77,8.08,2.32-1.43,2.81-7.93,5-7.76,8.32,4.07,1.46,8.44.26,5,5-2.38,3.24-4,4.69.52,6.26,4.34,1.5,3.73,1.31,3.67,5.55,0,2.81.15,3.72,2.47,5.39a90.84,90.84,0,0,0,11.2,6.93c-2.76,12-3.93,25.69-4.93,36.08-1.27,13.25-1.35,22.28-1.35,35.61,0,4.47-.8,10,.47,14.16,1,3.37.2,2.75,4,3.86,4.61,1.34,9.73,2.7,14.46,3.69,5.75,1.2,11.32.6,17.07.35.93,0,7.25,0,13.5-.1Z"/></g></g></g></g></svg>