<svg xmlns="http://www.w3.org/2000/svg" xmlns:xlink="http://www.w3.org/1999/xlink" viewBox="0 0 204.55 290.34"><defs><style>.cls-1{fill:none;}.cls-2{fill:#4dcdff;}.cls-3{clip-path:url(#clip-path);}.cls-4{fill:#818689;}.cls-5{fill:#e1d9cb;}.cls-6{fill:#231f20;}.cls-7,.cls-8{fill:#fff;}.cls-8{opacity:0.2;}</style><clipPath id="clip-path"><circle class="cls-1" cx="102.28" cy="102.28" r="102.28"/></clipPath></defs><g id="Layer_2" data-name="Layer 2"><g id="objects"><circle class="cls-2" cx="102.28" cy="102.28" r="102.28"/><g class="cls-3"><path class="cls-4" d="M148.51,32.62A26.36,26.36,0,0,0,132.32,39s-3.44-3.23-12.43-6.94a46.41,46.41,0,0,0-17.73-3.39h-.62A46.4,46.4,0,0,0,83.82,32C74.83,35.75,71.38,39,71.38,39a26.36,26.36,0,0,0-16.19-6.36c-9.82-.29-12.72.87-12.43,6.65s1.16,18.51,4.92,25.44,4.62,8.39,7.8,6.94,10.41-9.83,13-13.59a20,20,0,0,0,3.18-6.36s5.5,12.44,5.79,21.4,0,16.77-1.16,22.26S62.88,126.64,59,137.28c-5.63,15.28-8.94,44.15-7.51,65.34,1.67,24.79,5.64,47.07,10.4,61.57,5.4,16.44,7.52,21.4,9.26,23.42s19.65,3.47,25.73,2.32c1.81-.35,3.5-.67,5-1.05,1.52.38,3.22.7,5,1.05,6.07,1.15,24-.29,25.73-2.32s3.86-7,9.25-23.42c4.76-14.5,8.74-36.78,10.41-61.57,1.43-21.19-1.89-50.06-7.52-65.34-3.92-10.64-16.19-36.43-17.34-41.92S126,82.06,126.25,73.1,132,51.7,132,51.7a20.28,20.28,0,0,0,3.18,6.36c2.6,3.76,9.83,12.15,13,13.59s4.05,0,7.81-6.94,4.62-19.66,4.91-25.44S158.34,32.33,148.51,32.62ZM105.72,237.89a66,66,0,0,1-3.87,18.84A66.74,66.74,0,0,1,98,237.89c-1.17-18.51-1-32.23,3.87-36C106.72,205.66,106.89,219.38,105.72,237.89Z"/><path class="cls-5" d="M85.31,100.35c-4.26,0-8.44-.22-12.68-.22-6.22,0-12.63-.62-16.26,5.25-4.83,7.83-5.22,20-4.33,28.8.54,5.25.13,10.77.88,16,.59,4.07,3.72,7.65,8.07,7.89,5,.28,7.45-6.51,11.86-8.05,3.44-1.19,5.6,2.16,7.49,4.49,2.35,2.9,6.62,6.06,10.47,3.56s5.16-8,10.55-7.61c5.16.4,6.85,6.24,11.88,7.18,7.31,1.36,7.67-6.63,13.27-8.48,5.2-1.71,7.67,5.65,11.57,7.51,5.15,2.46,10.62.76,12.74-4.8,1.57-4.1,1.18-9.34,1.18-13.64,0-4.7-.32-9.29-.71-14-.5-6,.53-12.31-3-17.59-4.68-7-14.59-7.43-22.21-6.68C119,100.65,90,100.33,85.31,100.35Z"/><path class="cls-5" d="M103.82,161.41c-6.19-.2-10.33,3.39-13.49,5.77-3.83,2.89-7.08,7.3-9.74,11.25C78.76,181.15,69.75,196,79.44,194c4.81-1,10.19-7.7,13-11.45,1.68,3.43,2.75,7,6.82,8.52,5,1.81,9.33-3.43,10.08-7.93,2.21,3.81,18.63,16.88,19.35,6.28.64-9.49-9.05-18.45-15.4-24.23A15.31,15.31,0,0,0,103.82,161.41Z"/><path class="cls-5" d="M82.12,50.58c-4.09,1.74-5,7.4-5,11.28,0,2,.62,10.57,4,9.11,1.71-.74,2-4.52,1.9-6.06,1.42,1.35,3,4.63,5.49,4.32,2.36-.29,2.81-3.63,3-5.57,1.72,3,6.68,4.74,8.42.74,1.26-2.88.53-7.55-1.09-10.13C95.43,48.88,87.34,48.18,82.12,50.58Z"/><path class="cls-5" d="M121.58,50.58c4.1,1.74,5,7.4,5,11.28,0,2-.62,10.57-4,9.11-1.71-.74-2-4.52-1.91-6.06-1.42,1.35-3,4.63-5.48,4.32-2.36-.29-2.82-3.63-3-5.57-1.72,3-6.68,4.74-8.43.74-1.26-2.88-.52-7.55,1.1-10.13C108.27,48.88,116.37,48.18,121.58,50.58Z"/><path class="cls-6" d="M106.06,96.48c-4.67,0-13.84-.88-17.72,2.2-5.08,4,1.07,10.69,3.34,14.07s7.38,9.4,12.11,7.76c5.09-1.78,10.85-9.91,12.8-14.7C120.07,97.27,110.28,96.25,106.06,96.48Z"/><ellipse class="cls-7" cx="101.56" cy="101.43" rx="8.02" ry="2.39"/><circle class="cls-6" cx="92.46" cy="82.13" r="5.34"/><circle class="cls-7" cx="92.46" cy="82.13" r="1.68"/><circle class="cls-6" cx="111.25" cy="81.91" r="5.34"/><circle class="cls-7" cx="111.25" cy="81.91" r="1.68"/><path class="cls-8" d="M102.28,255.51c-.14.41-.28.83-.43,1.22A66.74,66.74,0,0,1,98,237.89c-1.17-18.51-1-32.23,3.87-36,.15.12.28.28.43.41V28.65h-.74A46.4,46.4,0,0,0,83.82,32C74.83,35.75,71.38,39,71.38,39a26.36,26.36,0,0,0-16.19-6.36c-9.82-.29-12.72.87-12.43,6.65s1.16,18.51,4.92,25.44,4.62,8.39,7.8,6.94,10.41-9.83,13-13.59a20,20,0,0,0,3.18-6.36s5.5,12.44,5.79,21.4,0,16.77-1.16,22.26a36,36,0,0,1-1.62,4.79l-2.05,0c-6.22,0-12.63-.62-16.26,5.25-4.83,7.83-5.22,20-4.33,28.8.54,5.25.13,10.77.88,16a9.84,9.84,0,0,0,1.63,4.16,207.66,207.66,0,0,0-3.11,48.32c1.67,24.79,5.64,47.07,10.4,61.57,5.4,16.44,7.52,21.4,9.26,23.42s19.65,3.47,25.73,2.32c1.81-.35,3.5-.67,5-1.05l.43.09Z"/></g></g></g></svg>