<svg xmlns="http://www.w3.org/2000/svg" xmlns:xlink="http://www.w3.org/1999/xlink" viewBox="0 0 204.55 239.46"><defs><style>.cls-1{fill:none;}.cls-2{fill:#bbd64a;}.cls-3{clip-path:url(#clip-path);}.cls-4{fill:#bc4029;}.cls-5{fill:#e9d8c9;}.cls-6{fill:#702e1e;}.cls-7{fill:#231f20;}.cls-8,.cls-9{fill:#fff;}.cls-9{opacity:0.2;}</style><clipPath id="clip-path"><circle class="cls-1" cx="102.28" cy="102.28" r="102.28"/></clipPath></defs><g id="Layer_2" data-name="Layer 2"><g id="objects"><circle class="cls-2" cx="102.28" cy="102.28" r="102.28"/><g class="cls-3"><path class="cls-4" d="M70,129.21c-.93,2.39.87,6.84.09,10a66.11,66.11,0,0,1-4.36,11.41c-3.37,7.25-8.24,13.71-11.42,21.05A53.34,53.34,0,0,0,49.74,193c0,3.78-.59,8.17.24,11.87,1.18,5.26,7.3,8,11.94,9.88,15,6.16,31.06,13.11,46.88,6-.84-2.33.51-5.17.68-7.66.42-6.21.31-12.71.28-18.92-.08-12.52.55-25.81,0-38.28-.33-7.23-2-14.38-8.72-19-4.69-3.23-9.55-3.87-14.72-5.72C82.39,129.74,78.25,127.92,70,129.21Z"/><path class="cls-4" d="M134.6,129.19c.93,2.39-.87,6.85-.09,10a66.25,66.25,0,0,0,4.37,11.42c3.36,7.25,8.23,13.7,11.42,21.05A53.46,53.46,0,0,1,154.81,193c0,3.78.6,8.18-.23,11.87-1.19,5.26-7.3,8-12,9.89-14.95,6.16-31.06,13.1-46.88,6,.84-2.33-.51-5.16-.68-7.65-.42-6.22-.31-12.72-.27-18.93.07-12.52-.56-25.81,0-38.28.32-7.22,2-14.38,8.71-19,4.7-3.23,9.55-3.87,14.72-5.73C122.16,129.73,126.3,127.91,134.6,129.19Z"/><path class="cls-5" d="M130.91,205.12c-.6-11.12-1-22.77-6-33-3.81-8-11.18-17.66-21.11-17.77a3.32,3.32,0,0,0-1.47-.18,3.44,3.44,0,0,0-1.78.2c-9.88.17-17.21,9.81-21,17.76-4.91,10.27-5.35,21.92-6,33-.48,8.65-2.86,26.27,6.27,31.41,4.84,2.72,12.37,3.37,17.75,2.61a18.35,18.35,0,0,0,4.63-1.26,18.24,18.24,0,0,0,4.6,1.24c5.38.77,12.91.12,17.75-2.6C133.77,231.39,131.39,213.78,130.91,205.12Z"/><path class="cls-6" d="M49.14,25.81s9.68.16,21,8.58S86.9,51.29,88.21,54.05a36.38,36.38,0,0,1,2,5.51s-13.5,2.18-19.59,6.09S57.44,78.86,57.44,78.86s-4.53-5.47-8.3-17.37S45.8,30.74,49.14,25.81Z"/><path class="cls-5" d="M68.11,39.81C58.53,30.23,52,28.61,50.72,29.2s-.47,13.93,1.13,20.32A93.64,93.64,0,0,0,58.6,67.83,40.81,40.81,0,0,0,62,73.52a49.06,49.06,0,0,1,8.7-7.87c2.93-1.88,7.59-3.37,11.62-4.4C79.56,56.12,75.26,47,68.11,39.81Z"/><path class="cls-5" d="M53.35,82.47s3.77,4.65-2.07,13.23c-11.06,16.25-33.84,11-33.84,11l17.19,6.75s-1.52,2.18-7.18,5.33c-4.87,2.72-6.53,3.16-6.53,3.16s7.62,2.18,12.19,2.18,7.84-.22,7.84-.22-4.14,4.13-5.45,6.53a21.81,21.81,0,0,0-1.74,3.92s22.86-5.88,42.23,3.26,22.64,20,23.29,22.64,1.74.22,1.74.22.87-35.92-5-52.24S81.87,72.79,74.9,72.13,53.35,82.47,53.35,82.47Z"/><circle class="cls-7" cx="72.91" cy="109.47" r="5.91"/><circle class="cls-8" cx="72.91" cy="109.47" r="1.86"/><ellipse class="cls-7" cx="102.26" cy="162.14" rx="6.31" ry="7.29"/><path class="cls-6" d="M155.41,25.79s-9.68.17-21,8.58S117.65,51.27,116.35,54a36.12,36.12,0,0,0-2,5.52s13.5,2.17,19.59,6.09,13.21,13.21,13.21,13.21,4.53-5.48,8.3-17.38S158.75,30.73,155.41,25.79Z"/><path class="cls-5" d="M136.45,39.79c9.57-9.57,16.08-11.19,17.38-10.61s.47,13.94-1.13,20.32A93.74,93.74,0,0,1,146,67.82a41.61,41.61,0,0,1-3.34,5.69,48.7,48.7,0,0,0-8.71-7.87c-2.93-1.89-7.59-3.37-11.62-4.4C125,56.11,129.29,47,136.45,39.79Z"/><path class="cls-5" d="M151.2,82.46s-3.77,4.65,2.07,13.22c11.06,16.26,33.84,11,33.84,11l-17.19,6.75s1.52,2.17,7.18,5.33c4.87,2.72,6.53,3.16,6.53,3.16s-7.62,2.17-12.19,2.17-7.83-.22-7.83-.22,4.13,4.14,5.44,6.53a22.17,22.17,0,0,1,1.74,3.92s-22.86-5.87-42.23,3.27-22.64,20-23.29,22.64-1.74.21-1.74.21-.87-35.91,5-52.24,14.15-35.48,21.12-36.13S151.2,82.46,151.2,82.46Z"/><circle class="cls-7" cx="131.64" cy="109.46" r="5.91"/><circle class="cls-8" cx="131.64" cy="109.46" r="1.86"/><path class="cls-4" d="M140,65C125.69,52.18,78.8,52.25,64.61,65c-15.13,13.57-19.87,37.48-19.87,37.48s13.34-11,24.61-9.48c13.1,1.8,19.56,6.3,23.26,23.93s6.46,45.55,6.46,45.55h4v0h2.38s2.76-27.91,6.46-45.54S122.11,94.78,135.2,93c11.27-1.55,24.62,9.49,24.62,9.49S155.08,78.54,140,65Z"/><ellipse class="cls-7" cx="102.29" cy="162.13" rx="6.31" ry="7.29"/><path class="cls-9" d="M101.44,55.43a103.16,103.16,0,0,0-12.3.8c-.27-.69-.58-1.44-.93-2.18-1.31-2.76-6.75-11.24-18.07-19.66s-21-8.58-21-8.58c-3.34,4.93-3.77,23.78,0,35.68A67.75,67.75,0,0,0,55.49,76a87.77,87.77,0,0,0-10.71,26.27c-11.66,8.07-27.34,4.49-27.34,4.49l17.19,6.75s-1.52,2.18-7.18,5.33c-4.87,2.72-6.53,3.16-6.53,3.16s7.62,2.18,12.19,2.18,7.84-.22,7.84-.22-4.14,4.13-5.44,6.53a21.51,21.51,0,0,0-1.75,3.92s18.52-4.76,36.35,1a11.4,11.4,0,0,1-.07,3.88,66.11,66.11,0,0,1-4.36,11.41c-3.37,7.25-8.24,13.71-11.42,21.05A53.34,53.34,0,0,0,49.74,193c0,3.78-.59,8.17.24,11.87,1.18,5.26,7.3,8,11.94,9.88,3.64,1.5,7.35,3,11.11,4.42.16,7.21,1.58,14.4,6.88,17.39,4.84,2.72,12.37,3.37,17.75,2.61a18.84,18.84,0,0,0,3.78-.93Z"/></g></g></g></svg>