<svg xmlns="http://www.w3.org/2000/svg" xmlns:xlink="http://www.w3.org/1999/xlink" viewBox="0 0 204.55 205.48"><defs><style>.cls-1{fill:none;}.cls-2{fill:#ffca3c;}.cls-3{clip-path:url(#clip-path);}.cls-4{fill:#818689;}.cls-5{fill:#c1bdbb;}.cls-6{fill:#231f20;}.cls-7,.cls-8{fill:#fff;}.cls-8{opacity:0.2;}</style><clipPath id="clip-path"><circle class="cls-1" cx="102.28" cy="102.28" r="102.28"/></clipPath></defs><g id="Layer_2" data-name="Layer 2"><g id="objects"><circle class="cls-2" cx="102.28" cy="102.28" r="102.28"/><g class="cls-3"><path class="cls-4" d="M158.18,166a140.05,140.05,0,0,0-3.24-25.3c-1.73-7.17-3.87-25.11-9.69-29.08-3.42-8.65-22-7.69-30.06-5.14-9.28,2.93-12.44,7.25-13.36,13.22-.92-6-4.08-10.29-13.36-13.22C80.39,104,61.83,103,58.41,111.65c-5.82,4-8,21.91-9.69,29.08A140.05,140.05,0,0,0,45.48,166c-.33,6.6-.8,14.53.44,20.91,2,10.46,15.39,14.74,24.74,16.82,9.85,2.19,20.77,1.83,30.89,1.39.11-.72.19-1.44.28-2.16.09.72.17,1.44.28,2.16,10.12.44,21,.8,30.89-1.39,9.35-2.08,22.7-6.36,24.74-16.82C159,180.56,158.51,172.63,158.18,166Zm-56.35-32c.23,5.53.17,11.1,0,16.68C101.66,145.15,101.6,139.58,101.83,134.05Z"/><path class="cls-5" d="M146.59,141.08c-1.61-4.34-3.68-7.91-3.12-12.72.51-4.43,2.22-7.83,2.23-12.7-1.28-5.12-13.8-8.37-18.53-9-7.33-.9-18.29-1.9-25.34,2-7-3.85-18-2.85-25.34-2-4.73.58-17.25,3.83-18.53,9,0,4.87,1.72,8.27,2.23,12.7.56,4.81-1.51,8.38-3.12,12.72-3.64,9.85,1.19,21.18,7.14,29.39,7.48,10.31,17.72,19.25,29.85,23.93a17.5,17.5,0,0,0,7.77,1.51,17.5,17.5,0,0,0,7.77-1.51c12.13-4.68,22.36-13.62,29.85-23.93C145.4,162.26,150.23,150.93,146.59,141.08Z"/><path class="cls-4" d="M81.57,67.2C78.41,52.69,62.48,40.09,48.31,39.62c-10-.33-34.76,10.3-20.33,22.53-11.39,2.15-10.47,12.46.75,13.31C25,82.16,25.5,89,35.2,89.23c-.51,13.63,23.15,17.78,32.64,12.25C80.62,94.05,77.08,77.68,81.57,67.2Z"/><path class="cls-5" d="M67,111c14-14.66,13.44-34.79.61-49.28-4.92-5.55-10-10.71-18.16-10.69-7.73,0-12.64,5.29-11.66,13.16.69,5.52,4.91,5.85,4.87,7.54S40.11,74.61,39.86,78c-.43,5.75,2.15,8,7.56,9.73C42.19,97.41,58,98,63.58,98.18,65.45,102.71,63,108.1,67,111Z"/><path class="cls-4" d="M122.09,67.2c3.16-14.51,19.09-27.11,33.26-27.58,10-.33,34.76,10.3,20.33,22.53,11.39,2.15,10.47,12.46-.75,13.31,3.75,6.7,3.22,13.49-6.47,13.77.51,13.63-23.15,17.78-32.65,12.25C123,94.05,126.58,77.68,122.09,67.2Z"/><path class="cls-5" d="M136.69,111c-14-14.66-13.44-34.79-.61-49.28C141,56.19,146,51,154.24,51.05c7.73,0,12.64,5.29,11.66,13.16-.69,5.52-4.91,5.85-4.88,7.54s2.53,2.86,2.78,6.21c.43,5.75-2.15,8-7.56,9.73,5.23,9.72-10.59,10.34-16.16,10.49C138.21,102.71,140.7,108.1,136.69,111Z"/><path class="cls-4" d="M151.25,85.55c-4.76-11-9.47-21.87-18.71-29.94-8.36-7.31-19.69-7.54-30.37-7.55h-.68c-10.68,0-22,.24-30.37,7.55-9.24,8.07-14,19-18.71,29.94-3.29,7.58-5.86,19.18-2.86,27.34,3.77,10.26,14.79,16.54,24.55,19.78,8.36,2.78,19,3,27.73,2.56,8.76.42,19.37.22,27.73-2.56,9.76-3.24,20.78-9.52,24.55-19.78C157.11,104.73,154.54,93.13,151.25,85.55ZM101.83,48.29c.73.5.45.45,0,.46S101.1,48.79,101.83,48.29Z"/><path class="cls-6" d="M101.36,111c1.7,5-1.7,9.73-6.27,11.62a15.47,15.47,0,0,1-13.51-.81.27.27,0,0,0-.32.42c3.56,4,10.45,3.19,14.83,1.11s8.25-7.52,5.71-12.53a.24.24,0,0,0-.44.19Z"/><circle class="cls-6" cx="80.68" cy="86.71" r="5.83"/><circle class="cls-7" cx="80.68" cy="86.71" r="1.83"/><path class="cls-6" d="M113,86c-1.63-6.64-4.57-7.67-10.43-7.78v0h-1.36v0c-5.86.11-8.8,1.14-10.44,7.78a60.51,60.51,0,0,0-2,16.39c.28,5,2.72,10.84,11,12.32a8.37,8.37,0,0,0,4.14,0c8.29-1.48,10.73-7.27,11-12.32A60.12,60.12,0,0,0,113,86Z"/><path class="cls-6" d="M103,110.84c-2.54,5,1.17,10.38,5.7,12.53s11.27,2.87,14.84-1.11a.27.27,0,0,0-.32-.42,15.52,15.52,0,0,1-13.52.81c-4.57-1.88-8-6.58-6.26-11.62.08-.26-.32-.43-.44-.19Z"/><circle class="cls-6" cx="122.98" cy="86.71" r="5.83"/><circle class="cls-7" cx="122.98" cy="86.71" r="1.83"/><path class="cls-8" d="M102.5,48.07h-1c-9.38,0-19.26.19-27.19,5.19-6.71-7.83-16.73-13.32-26-13.63-10-.33-34.76,10.3-20.33,22.53-11.39,2.15-10.47,12.46.75,13.31C25,82.16,25.5,89,35.2,89.23c-.26,7,5.81,11.46,13.07,13.44a25.83,25.83,0,0,0,1.28,10.22,23.91,23.91,0,0,0,4,6.9c-2.4,7-3.7,16.26-4.83,20.94A140.05,140.05,0,0,0,45.48,166c-.33,6.6-.8,14.53.44,20.91,2,10.46,15.39,14.74,24.74,16.82,9.85,2.19,20.77,1.83,30.89,1.39.11-.72.19-1.44.28-2.16.09.72.17,1.44.28,2.16h.39Zm-.67.68c-.45,0-.73,0,0-.46C102.56,48.79,102.28,48.74,101.83,48.75Z"/></g></g></g></svg>