<svg xmlns="http://www.w3.org/2000/svg" xmlns:xlink="http://www.w3.org/1999/xlink" viewBox="0 0 204.55 211.32"><defs><style>.cls-1{fill:none;}.cls-2{fill:#bbd64a;}.cls-3{clip-path:url(#clip-path);}.cls-4{fill:#ffac45;}.cls-5{fill:#b85e26;}.cls-6{fill:#ffd5a2;}.cls-7{fill:#1d1d1b;}.cls-8{fill:#231f20;}.cls-10,.cls-9{fill:#fff;}.cls-10{opacity:0.2;}</style><clipPath id="clip-path"><circle class="cls-1" cx="102.28" cy="102.28" r="102.28"/></clipPath></defs><g id="Layer_2" data-name="Layer 2"><g id="objects"><circle class="cls-2" cx="102.28" cy="102.28" r="102.28"/><g class="cls-3"><path class="cls-4" d="M150.79,182.9a117,117,0,0,0-13.48-48.59c-9.27-.81-28.2-4.59-35.07,3.37-6.87-8-25.81-4.18-35.08-3.37A116.87,116.87,0,0,0,53.69,182.9c-.22,4.46-1.29,11.67,0,15.92,1.49,4.91,9,4.32,13.48,6.32,5.23,2.31,9.87,4.43,15.64,5.44,4.69.82,14.44,1.48,19.43-1,5,2.47,14.73,1.81,19.43,1,5.77-1,10.4-3.13,15.63-5.44,4.52-2,12-1.41,13.49-6.32C152.07,194.57,151,187.36,150.79,182.9Z"/><ellipse class="cls-5" cx="102.43" cy="102.76" rx="80" ry="79.38"/><circle class="cls-4" cx="69.98" cy="64.31" r="11.76"/><circle class="cls-6" cx="69.98" cy="64.31" r="7.17"/><path class="cls-4" d="M115.37,131a96.25,96.25,0,0,0-9.46-9.15c-1.51-1.33-2.56-1.93-3.67-.43-1.11-1.5-2.16-.9-3.67.43A97.48,97.48,0,0,0,89.1,131c-2.2,2.6-7.87,7.76-6.42,10.88.55,3.67,5.83,6.21,9,7.2a33.59,33.59,0,0,0,10.58,1.39,33.59,33.59,0,0,0,10.58-1.39c3.14-1,8.42-3.53,9-7.2C123.25,138.74,117.58,133.58,115.37,131Z"/><path class="cls-6" d="M103.19,56.63C95.34,56.79,86,55,79,58.62c-5.09,2.66-8.8,9.19-11.05,14.17-4.43,9.76-6.9,22.79-9.17,33.14C55.82,119.53,52.62,140,71,143c5.68.92,12.86,2.14,19.6-.92,5.33-2.43,9.89-6.6,11.64-12.25,1.25-4,.92-9.09.91-13.41,0-9.69-.08-19.47-.86-29.09C101.49,77,103.12,67.07,103.19,56.63Z"/><circle class="cls-4" cx="134.49" cy="64.31" r="11.76"/><circle class="cls-6" cx="134.49" cy="64.31" r="7.17"/><path class="cls-6" d="M101.28,56.63c7.86.16,17.19-1.68,24.19,2,5.09,2.66,8.79,9.19,11.05,14.17,4.43,9.76,6.9,22.79,9.16,33.14,3,13.6,6.18,34.07-12.24,37.06-5.68.92-12.87,2.14-19.6-.92-5.34-2.43-9.9-6.6-11.65-12.25-1.25-4-.91-9.09-.91-13.41,0-9.69.09-19.47.87-29.09C103,77,101.35,67.07,101.28,56.63Z"/><path class="cls-4" d="M136.52,72.79c-2.26-5-6-11.51-11.05-14.17-6.46-3.38-14.9-2.09-22.33-2h-1.8c-7.43-.1-15.87-1.39-22.33,2-5.09,2.66-8.8,9.19-11.05,14.17-.56,1.23-1.09,2.52-1.59,3.85A24.5,24.5,0,0,1,75,79.91c7.94,4.58,12.58,10,16.31,18.38s4.63,17.41,7.32,26c.9.15,1.79.34,2.7.49a1.27,1.27,0,0,0,0,.2,8.72,8.72,0,0,0,.88-.08,8.46,8.46,0,0,0,.88.08,1.27,1.27,0,0,0,0-.2c.9-.15,1.8-.34,2.69-.49,2.69-8.56,3.55-17.44,7.33-26s8.37-13.8,16.3-18.38a24.55,24.55,0,0,1,8.66-3.27C137.61,75.31,137.08,74,136.52,72.79Z"/><path class="cls-7" d="M90.66,126.75c-14.28.82-27.5,6.88-39.79,13.78-3.49,2-6.94,4-10.38,6.06a.61.61,0,0,0,.61,1.06c12-7.17,24.34-14.47,38-17.89A63.3,63.3,0,0,1,90.66,128c.78,0,.78-1.27,0-1.22Z"/><path class="cls-7" d="M90.3,121.77a116.8,116.8,0,0,0-37,1.07q-5.22,1-10.33,2.47a.61.61,0,0,0,.33,1.18A115.74,115.74,0,0,1,80,122.09q5.19.22,10.34.9c.78.1.78-1.12,0-1.22Z"/><path class="cls-7" d="M93.15,130.33a154.63,154.63,0,0,0-29.41,22.33q-3.78,3.66-7.3,7.58c-.53.58.34,1.45.86.86a153.94,153.94,0,0,1,27.75-24.22q4.28-2.9,8.72-5.5a.61.61,0,0,0-.62-1Z"/><circle class="cls-8" cx="82.53" cy="102.57" r="5.34"/><circle class="cls-9" cx="82.53" cy="102.57" r="1.68"/><path d="M102.24,120.78c-3.07-.85-9.29-1.63-6.95,2.93,1,2,6.74,6.77,6.95,6.68.21.09,5.94-4.73,7-6.68C111.53,119.15,105.31,119.93,102.24,120.78Z"/><path class="cls-7" d="M113.82,128c14.13.82,27.21,6.89,39.36,13.73,3.43,1.93,6.81,3.93,10.19,6a.61.61,0,0,0,.62-1.06c-12.16-7.25-24.66-14.64-38.53-18.06a63.59,63.59,0,0,0-11.64-1.78c-.79,0-.78,1.17,0,1.22Z"/><path class="cls-7" d="M114.17,123a116,116,0,0,1,37,1.08c3.39.65,6.76,1.47,10.09,2.42a.61.61,0,0,0,.32-1.18,116.92,116.92,0,0,0-36.78-4.45q-5.31.21-10.58.91c-.77.1-.78,1.32,0,1.22Z"/><path class="cls-7" d="M110.7,131.38A153.36,153.36,0,0,1,140,153.68q3.71,3.58,7.15,7.42c.53.59,1.4-.28.87-.86A154.77,154.77,0,0,0,120.22,136q-4.35-3-8.9-5.62a.61.61,0,0,0-.62,1Z"/><circle class="cls-8" cx="121.95" cy="102.57" r="5.34"/><circle class="cls-9" cx="121.95" cy="102.57" r="1.68"/><path class="cls-10" d="M101.87,23.4C58,23.7,22.43,59.11,22.43,102.76A79.05,79.05,0,0,0,55.6,167.1a113.26,113.26,0,0,0-1.91,15.8c-.22,4.46-1.29,11.67,0,15.92,1.49,4.91,9,4.32,13.48,6.32,5.23,2.31,9.87,4.43,15.64,5.44,4.58.8,14,1.44,19.06-.83Z"/></g></g></g></svg>