<svg xmlns="http://www.w3.org/2000/svg" xmlns:xlink="http://www.w3.org/1999/xlink" viewBox="0 0 204.55 218.95"><defs><style>.cls-1{fill:none;}.cls-2{fill:#e0dbdd;}.cls-3{fill:#ff6470;}.cls-4{clip-path:url(#clip-path);}.cls-5{fill:#beb3b8;}.cls-6{clip-path:url(#clip-path-2);}.cls-7{fill:#f0bbbb;}.cls-8{fill:#c9c0c4;}.cls-14,.cls-9{fill:#fff;}.cls-10{clip-path:url(#clip-path-3);}.cls-11{fill:#d9d2d5;}.cls-12{fill:#231f20;}.cls-13{fill:#e38383;}.cls-14{opacity:0.2;}</style><clipPath id="clip-path"><circle class="cls-1" cx="102.28" cy="102.28" r="102.28"/></clipPath><clipPath id="clip-path-2"><path class="cls-2" d="M94,78.9C89,68.43,82.33,56.36,73.62,47.84c-4.33-4.23-16.38-13.39-22.94-12.21-6.74,1.22,2.8,16.61,4.9,20.74A114.93,114.93,0,0,0,73.26,82.58c2.94,3.21,5.74,9,10.07,6.09C86,86.89,90.89,81.68,94,78.9Z"/></clipPath><clipPath id="clip-path-3"><path class="cls-2" d="M108.9,78.9c5-10.47,11.68-22.54,20.38-31.06,4.33-4.23,16.39-13.39,22.94-12.21,6.74,1.22-2.8,16.61-4.9,20.74a114.93,114.93,0,0,1-17.68,26.21c-2.94,3.21-5.74,9-10.06,6.09C116.89,86.89,112,81.68,108.9,78.9Z"/></clipPath></defs><g id="Layer_2" data-name="Layer 2"><g id="objects"><circle class="cls-3" cx="102.28" cy="102.28" r="102.28"/><circle class="cls-3" cx="102.28" cy="102.28" r="102.28"/><g class="cls-4"><path class="cls-5" d="M160.53,178.76c-1-7.09-2.06-13.57-5-20.37-3.22-7.47-9.47-22.07-17-25.46-5.3,3.11-11.77,3.64-17.65,5.4-5.35,1.61-14.9,3-19.41,7.55-4.51-4.56-14-5.94-19.4-7.55-5.89-1.76-12.36-2.29-17.66-5.4-7.56,3.39-13.8,18-17,25.46-2.94,6.8-4,13.28-5,20.37-.69,4.83-3.36,12.86.77,16.74,3.78,3.55,9,11.33,13.81,11.89,6.58.78,8.88,9.44,15.51,9.8,7.74.43,21.11,2.25,28.58,1.64,7.47.61,20-1.21,27.76-1.64,6.64-.36,15.46-4.12,22.05-4.9,4.77-.56,8.46-7,12.25-10.61C167.24,197.8,161.22,183.59,160.53,178.76Z"/><path class="cls-2" d="M94,78.9C89,68.43,82.33,56.36,73.62,47.84c-4.33-4.23-16.38-13.39-22.94-12.21-6.74,1.22,2.8,16.61,4.9,20.74A114.93,114.93,0,0,0,73.26,82.58c2.94,3.21,5.74,9,10.07,6.09C86,86.89,90.89,81.68,94,78.9Z"/><g class="cls-6"><path class="cls-7" d="M45.11,42.45C58.13,46.7,69.46,58.84,75,71c2.22,4.85,3.85,9.69,3.93,15,0,2.74-.13,5.9-2,8.07-5.07,5.74-10.28-3.69-13.37-7.53-7-8.74-11.49-18.78-16.22-28.81C45.41,53.61,42.42,46.88,45.11,42.45Z"/></g><path class="cls-8" d="M120.63,144.88c-.54-3-2.35-5.74-4-8.23-2.48-3.69-9.08-15.89-14.53-13.24a4.44,4.44,0,0,0-.63.39,5,5,0,0,0-.62-.39c-5.45-2.65-12,9.55-14.53,13.24-1.68,2.49-3.49,5.21-4,8.23-.25,1.4.14,2.86-.58,3.65.9,3.22,6.27,5.83,9.24,6.5a59.57,59.57,0,0,0,10.51,1.52A59.7,59.7,0,0,0,112,155c3-.67,8.34-3.28,9.24-6.5C120.49,147.74,120.88,146.28,120.63,144.88Z"/><path class="cls-9" d="M95.88,134.77c-.55,2.79-1.24,5.58-1.78,8.38-.41,2.15-1,4.78-.07,6.85.51,1.11.82,1.37,2,1.47.84.06,1.69.08,2.53.15s1.63.35,2.22-.22c1-1,.87-3.14,1-4.39.27-3.35.15-6.74.35-10.1.09-1.39.09-2.69-1.55-3.17C99.22,133.34,96.83,133.42,95.88,134.77Z"/><path class="cls-9" d="M101.58,134.28c0,1.8.26,3.57.28,5.36a29.27,29.27,0,0,0,.28,4.68c.2,1.16.36,2.33.55,3.5a4.51,4.51,0,0,0,.62,2.14c.78.85,2.83.52,3.8.25s1.56-.57,1.77-1.45a10.07,10.07,0,0,0-.06-3.42c-.15-1.53-.4-3.07-.7-4.57s-.6-3-1.06-4.48a4.31,4.31,0,0,0-1-2A4.42,4.42,0,0,0,101.58,134.28Z"/><path class="cls-2" d="M108.9,78.9c5-10.47,11.68-22.54,20.38-31.06,4.33-4.23,16.39-13.39,22.94-12.21,6.74,1.22-2.8,16.61-4.9,20.74a114.93,114.93,0,0,1-17.68,26.21c-2.94,3.21-5.74,9-10.06,6.09C116.89,86.89,112,81.68,108.9,78.9Z"/><g class="cls-10"><path class="cls-7" d="M157.79,42.45c-13,4.25-24.35,16.39-29.9,28.52-2.21,4.85-3.84,9.69-3.93,15,0,2.74.14,5.9,2.05,8.07,5.07,5.74,10.27-3.69,13.37-7.53,7-8.74,11.49-18.78,16.21-28.81C157.5,53.61,160.48,46.88,157.79,42.45Z"/></g><path class="cls-11" d="M142.64,123.25c-2.21-6.47-7.6-10.71-11.82-16.08-4.56-5.81-2.81-14-6.31-20.38-2.42-4.39-5.73-8.93-10.38-11a30.25,30.25,0,0,0-10.92-2.23.17.17,0,0,0,0-.07l-1.75,0-1.75,0s0,0,0,.07a30.24,30.24,0,0,0-10.91,2.23c-4.65,2-8,6.57-10.38,11-3.5,6.36-1.31,14.77-5.88,20.57-4.22,5.37-9.41,8.84-11.62,15.3-2,5.79-2.27,13.42,1.36,18.41A24.15,24.15,0,0,0,79.14,151c11.16,1.21,19.15-6.34,22.31-16,3.17,9.64,11.15,17.19,22.31,16,6.6-.72,12.43-4.6,16.55-10.27A19.29,19.29,0,0,0,142.64,123.25Z"/><circle class="cls-12" cx="85.08" cy="105.25" r="5.01"/><circle class="cls-9" cx="85.08" cy="105.25" r="1.57"/><circle class="cls-12" cx="117.17" cy="105.25" r="5.01"/><circle class="cls-9" cx="117.17" cy="105.25" r="1.57"/><path class="cls-13" d="M101.56,130.18c0-1.55-1.75-2.77-2.88-3.53-.77-.51-1.63-.81-2.35-1.38-.42-.33-1.41-1.27-1.15-1.87.41-.91,3-.63,3.81-.63,1.63,0,3.29-.1,4.91,0,1,0,4.86-.4,4.1,1.54-.65,1.7-3.3,2.32-4.62,3.32a4.17,4.17,0,0,0-1.42,1.59C101.77,129.59,101.81,130.22,101.56,130.18Z"/><path class="cls-14" d="M103.5,73.62l-.29,0a.17.17,0,0,0,0-.07l-1.75,0-1.75,0s0,0,0,.07A34.59,34.59,0,0,0,92,74.72C87.2,65.33,81.19,55.24,73.62,47.84c-4.33-4.23-16.38-13.39-22.94-12.21-3.2.58-2.73,4.36-1.12,8.61.66,2.19,5.65,11.24,7.55,15.28,4.72,10,16.3,23.65,20.67,28.55-2.07,5.06-1.46,14.62-5.26,19.29-4.31,5.3-9.41,8.84-11.62,15.3a24.86,24.86,0,0,0-.86,13.5c-5.58,5.71-10.09,16.25-12.67,22.23-2.94,6.8-4,13.28-5,20.37-.69,4.83-3.36,12.86.77,16.74,3.78,3.55,9,11.33,13.81,11.89,6.58.78,8.88,9.44,15.51,9.8,7.74.43,21.11,2.25,28.58,1.64.76.06,1.59.09,2.45.11Z"/></g></g></g></svg>