<svg xmlns="http://www.w3.org/2000/svg" xmlns:xlink="http://www.w3.org/1999/xlink" viewBox="0 0 204.55 210.37"><defs><style>.cls-1,.cls-9{fill:none;}.cls-2{fill:#4dcdff;}.cls-3{clip-path:url(#clip-path);}.cls-4{fill:#b85e26;}.cls-10,.cls-5{fill:#fff;}.cls-6{fill:#ffac45;}.cls-7{fill:#ffc57d;}.cls-8{fill:#231f20;}.cls-9{stroke:#b85e26;stroke-linecap:round;stroke-linejoin:round;stroke-width:1.22px;}.cls-10{opacity:0.2;}</style><clipPath id="clip-path"><circle class="cls-1" cx="102.28" cy="102.28" r="102.28"/></clipPath></defs><g id="Layer_2" data-name="Layer 2"><g id="objects"><circle class="cls-2" cx="102.28" cy="102.28" r="102.28"/><g class="cls-3"><ellipse class="cls-4" cx="143.09" cy="51.32" rx="18.72" ry="19.16"/><ellipse class="cls-5" cx="140.77" cy="54.37" rx="10.64" ry="10.89"/><ellipse class="cls-4" cx="59.18" cy="51.32" rx="18.72" ry="19.16"/><ellipse class="cls-5" cx="61.5" cy="54.37" rx="10.64" ry="10.89"/><path class="cls-6" d="M155.11,185.67c-.46-9.74-1.16-15.93-2.45-25.64-1.19-9-6.39-20.44-11-27.76-3.18-5.68-11.89-5.77-19.28-6.44-5.24-.47-13,.71-17.09,4.29a17.27,17.27,0,0,0-4.14,5.3,17.27,17.27,0,0,0-4.14-5.3c-4-3.58-11.84-4.76-17.08-4.29-7.39.67-16.1.76-19.28,6.44-4.64,7.32-9.83,18.8-11,27.76-1.3,9.71-2,15.9-2.45,25.64a108.72,108.72,0,0,0,.4,18.06c.53,4.19.64,4.33,5.29,4.91a144,144,0,0,0,17.38.8c9.18,0,21.22,1.1,30.9.91,9.69.19,21.73-.93,30.91-.91a143.79,143.79,0,0,0,17.37-.8c4.66-.58,4.77-.72,5.29-4.91A107.65,107.65,0,0,0,155.11,185.67Z"/><path class="cls-7" d="M71.85,182.08c0-16.63,16.59-35.38,25.63-42.13a4.36,4.36,0,0,1,5.12,0c9,6.75,25.63,25.5,25.63,42.13,0,3.91.23,9-4.46,10.25-4.9,1.29-8.4-4-11.48-6.75-.66,4.76.5,9.16-2.57,13.38-2.1,2.9-6,5.22-9.56,5.11h-.24c-3.56.11-7.46-2.21-9.57-5.11-3.06-4.22-1.91-8.62-2.56-13.38-3.08,2.71-6.58,8-11.48,6.75C71.62,191.09,71.85,186,71.85,182.08Z"/><path class="cls-6" d="M100.57,39.71s11-1.16,24.67,4.07,20.32,14.8,25,23.51,6.09,21.47,6.09,21.47,14.81,5.81,20.32,10.16l5.51,4.36-16.25,4.64s7,8.42,9,11a23.61,23.61,0,0,1,2.9,4.64H164.13s6.1,9.58,7.26,14.51a33.32,33.32,0,0,1,.87,9,77.1,77.1,0,0,0-29.61-4.35c-16.54.87-27,11.61-33.37,14.22s-8.71,2-8.71,2Z"/><path class="cls-6" d="M101.7,39.71s-11-1.16-24.67,4.07-20.32,14.8-25,23.51S46,88.76,46,88.76s-14.8,5.81-20.31,10.16l-5.52,4.36,16.26,4.64s-7,8.42-9,11a23.61,23.61,0,0,0-2.9,4.64H38.14s-6.1,9.58-7.26,14.51a33.32,33.32,0,0,0-.87,9,77.08,77.08,0,0,1,29.6-4.35c16.55.87,27,11.61,33.38,14.22s8.71,2,8.71,2Z"/><path class="cls-5" d="M171.39,138.1c-.94-4-5.12-11-6.67-13.57-13.47-15.4-42-17.69-63.59-16.8-21.58-.89-50.11,1.4-63.58,16.8-1.55,2.53-5.73,9.58-6.67,13.57a33.32,33.32,0,0,0-.87,9,77.08,77.08,0,0,1,29.6-4.35c16.55.87,27,11.61,33.38,14.22,4.64,1.9,7.13,2.11,8.14,2.08s3.51-.18,8.15-2.08c6.38-2.61,16.83-13.35,33.37-14.22a77.1,77.1,0,0,1,29.61,4.35A33.32,33.32,0,0,0,171.39,138.1Z"/><path d="M141.43,91.55c.06-2.51,4-6.44,5.39-8.51,1.72-2.54,3.75-5,5.64-7.39.22-.28.48-.65.76-1a82.18,82.18,0,0,1,2.57,10.7c-2.3,1.37-5.46,2.32-7,3.1C146.36,89.63,143.85,90.56,141.43,91.55Z"/><path d="M139.29,78.19c.26-1.73,8-9.46,10.77-11.16l.14.26a40.24,40.24,0,0,1,2.35,5.39c-1.87,1.11-4.33,1.88-6,2.68C144.46,76.39,141.63,78.09,139.29,78.19Z"/><path d="M109.27,66.73A188.65,188.65,0,0,1,106,46.87c-.3-2.26-.51-4.82-.9-7.24A61.37,61.37,0,0,1,115.89,41a89.87,89.87,0,0,1-3,14.2C111.91,59,111.07,63.22,109.27,66.73Z"/><circle class="cls-8" cx="120.41" cy="97.56" r="5.34"/><circle class="cls-5" cx="120.41" cy="97.56" r="1.68"/><path class="cls-8" d="M101.42,118.23c1.72,0,7.48-.7,8.39,1.07,1,1.94-3.31,5.7-4.53,6.63a15.75,15.75,0,0,1-3.72,1.9C100.62,125.2,102,121.37,101.42,118.23Z"/><path class="cls-8" d="M101.19,127.06c-.55,4.95.82,10.17,4.65,13.53a11.86,11.86,0,0,0,6.37,2.8,27.14,27.14,0,0,0,7.53-.16,15.7,15.7,0,0,0,7.44-3.1c.61-.5-.18-1.43-.8-.94-3.51,2.84-8.34,3.33-12.7,3.1a11.45,11.45,0,0,1-6.33-2.06,12,12,0,0,1-3.87-4.92,16.27,16.27,0,0,1-1.08-8c.07-.78-1.12-1-1.21-.23Z"/><path class="cls-9" d="M116.75,119a102.72,102.72,0,0,1,52.08,8.78"/><path class="cls-9" d="M116.7,124.78a162.25,162.25,0,0,1,61.81,21.57"/><path class="cls-9" d="M115.78,129.75a155.47,155.47,0,0,1,62.56,45"/><path d="M60.84,91.55c-.06-2.51-4-6.44-5.39-8.51-1.73-2.54-3.75-5-5.64-7.39-.23-.28-.48-.65-.76-1a80.57,80.57,0,0,0-2.57,10.7c2.29,1.37,5.46,2.32,7.05,3.1C55.9,89.63,58.42,90.56,60.84,91.55Z"/><path d="M63,78.19c-.25-1.73-8-9.46-10.76-11.16-.05.09-.1.17-.14.26a40.24,40.24,0,0,0-2.35,5.39c1.87,1.11,4.32,1.88,6,2.68C57.81,76.39,60.64,78.09,63,78.19Z"/><path d="M93,66.73a188.63,188.63,0,0,0,3.3-19.86c.31-2.26.52-4.82.91-7.24A61.26,61.26,0,0,0,86.38,41a89.84,89.84,0,0,0,3,14.2C90.35,59,91.2,63.22,93,66.73Z"/><circle class="cls-8" cx="82.86" cy="97.56" r="5.34"/><circle class="cls-5" cx="82.86" cy="97.56" r="1.68"/><path class="cls-8" d="M102.35,118.18c-1.72,0-9-.65-9.89,1.12-1,1.94,3.31,5.7,4.53,6.63a21.93,21.93,0,0,0,4.44,2.28C102.38,125.58,101.76,121.32,102.35,118.18Z"/><path class="cls-8" d="M99.86,127.23c.5,4.56-.72,9.45-4.33,12.51a10.67,10.67,0,0,1-6,2.47,26.79,26.79,0,0,1-6.87-.19,14.39,14.39,0,0,1-6.85-2.86c-.62-.5-1.31.51-.7,1,3.82,3.09,9.09,3.62,13.84,3.33a12.44,12.44,0,0,0,6.76-2.34,13.22,13.22,0,0,0,4.17-5.36,17.57,17.57,0,0,0,1.17-8.67.61.61,0,0,0-1.22.11Z"/><path class="cls-9" d="M85.52,119a102.7,102.7,0,0,0-52.08,8.78"/><path class="cls-9" d="M85.57,124.78a162.25,162.25,0,0,0-61.81,21.57"/><path class="cls-9" d="M86.48,129.75a155.51,155.51,0,0,0-62.55,45"/><path class="cls-10" d="M100.64,39.65a46.55,46.55,0,0,0-5.24.08l-.53,0-.86.07-.63.06-.92.1-.63.08c-.57.07-1.16.15-1.77.25l-.74.12-1,.18-.81.16a63.88,63.88,0,0,0-10.43,3l-.55.23a18.73,18.73,0,0,0-17.3-11.84A18.94,18.94,0,0,0,40.46,51.32a19.17,19.17,0,0,0,10.9,17.39c-.19.39-.37.79-.55,1.2v0c-.39.9-.75,1.82-1.08,2.75h0c-.24.66-.46,1.33-.67,2h0c-.8,2.52-1.42,5-1.88,7.19h0c-.1.43-.18.85-.26,1.25v0c-.65,3.3-.92,5.6-.92,5.6s-14.8,5.81-20.31,10.16l-5.52,4.36,16.26,4.64s-7,8.42-9,11a23.61,23.61,0,0,0-2.9,4.64H38.14l-.63,1-.3.5-.15.25-.14.22c-1.25.52-2.5,1.05-3.73,1.61a.61.61,0,0,0-.3.81.6.6,0,0,0,.55.36.58.58,0,0,0,.26-.06c.72-.33,1.45-.64,2.18-.95l-.2.35-.14.25-.57,1c0,.09-.09.17-.13.25-.15.27-.3.54-.44.81l-.2.37-.39.73-.2.4-.41.8-.15.32c-.19.37-.36.74-.53,1.11a.77.77,0,0,0-.07.16c-.15.31-.28.61-.41.92l-.15.34c-.1.24-.19.48-.28.71s-.1.24-.14.36l-.24.68-.1.3c-.09.32-.18.62-.25.9-.14.62-.27,1.22-.37,1.81s-.23,1.43-.3,2.09c-2.29,1.22-4.55,2.5-6.77,3.82a.62.62,0,0,0-.21.84.61.61,0,0,0,.53.3.56.56,0,0,0,.31-.09c2-1.17,4-2.3,6-3.4,0,.12,0,.23,0,.34s0,.44,0,.64c0,.41,0,.78,0,1.1V146c0,.69,0,1.09,0,1.09a57.27,57.27,0,0,1,6.7-2l.92-.23,2-.45A82.59,82.59,0,0,1,48,143.06q1.34-.13,2.73-.24c1.4-.09,2.84-.15,4.32-.17h0c-.63,1.41-1.24,2.84-1.81,4.29a155.83,155.83,0,0,0-29.82,27.43.63.63,0,0,0,.08.87.67.67,0,0,0,.39.14.66.66,0,0,0,.48-.22A153.86,153.86,0,0,1,52.49,149,54.44,54.44,0,0,0,49.61,160c-1.3,9.71-2,15.9-2.45,25.64a108.72,108.72,0,0,0,.4,18.06c.53,4.19.64,4.33,5.29,4.91a144,144,0,0,0,17.38.8c9,0,20.81,1.06,30.41.91Z"/></g></g></g></svg>